# xmcd
#
# Track frame offsets:
#	150
#	14577
#	27562
#	47220
#	61292
#	69765
#	80150
#	92512
#	114230
#	129232
#	140840
#	164165
#	178410
#	199510
#	206500
#
# Disc length: 2991 seconds
#
# Revision: 3
# Processed by: cddbd v1.5.1PL0 Copyright (c) Steve Scherf et al.
# Submitted via: audiograbber 1.83.01
#
DISCID=da0bad0f
DTITLE=Kaiser and Mansfield - Trimmed And Burnin'
DYEAR=1990
DGENRE=Christian Blues
TTITLE0=Great Change since I've Been Born
TTITLE1=Keep Your Lamp Trimmed and Burnin'
TTITLE2=Shaky Ground
TTITLE3=Nobody's Fault But Mine
TTITLE4=Go Tell Pharaoh
TTITLE5=You Got To Move
TTITLE6=In The Light Of The Morning Star
TTITLE7=Celestial Shore
TTITLE8=Jesus Is Comin' Soon
TTITLE9=God Don't Never Change
TTITLE10=What You Did
TTITLE11=I Belong To the Band
TTITLE12=You Got To Die
TTITLE13=Cornerstone
TTITLE14=We Shall See The King
EXTD=
EXTT0=
EXTT1=
EXTT2=
EXTT3=
EXTT4=
EXTT5=
EXTT6=
EXTT7=
EXTT8=
EXTT9=
EXTT10=
EXTT11=
EXTT12=
EXTT13=
EXTT14=
PLAYORDER=
